<svg id="Capa_1" data-name="Capa 1" xmlns="http://www.w3.org/2000/svg" viewBox="0 0 303.66 496.39"><defs><style>.cls-1{fill:#fff;}</style></defs><path class="cls-1" d="M399.69,108.48a9.23,9.23,0,0,0-6.22-6.28,36.93,36.93,0,0,1-23.23-20.08,54,54,0,0,0-2.6-4.87,34.3,34.3,0,0,0-17.06-14.42c-6.53-2.49-11.07-6.27-15.29-10C334.84,44,333,19.44,326,2.65A4.31,4.31,0,0,0,322.89.09,4.35,4.35,0,0,0,319,1.21c-6.84,6.68-19.8,22.13-25.84,46.65-26.69,12.21-34.69,38.24-34.69,56.24a51,51,0,0,0,2.83,16c-13.33,6.22-26.08,19.45-38.09,40.66l-61.66,74.18h0c-23.38,21.38-39,59.63-39,103.41a155,155,0,0,0,2.09,25.28c-.28.38-.69.61-.94,1-20.15,33.32-17.89,29.65-22.62,39.81-9.44,25.24-4.17,52,10.58,67.34,20.15,20.95,41.79,25,49.64,24.56,16,.27,13,.27,98.15-28.42a11.24,11.24,0,0,0-6.61-21.48c-85.8,24-83.33,24.74-97.28,21.05-1.19-.41-45.57-20.39-15.75-64.13,14.3,21.19,36.2,31.9,61.14,32.77v.29h90.29c7.13,0,12.93-4.76,12.93-10.63,0-9.32-5.07-18.16-13.82-24.07a41.09,41.09,0,0,0-13.75-5.83c6.39-11.11,10.8-24.6,12.64-40.53l24.56,76.74a6.41,6.41,0,0,0,6.06,4.32h42.06c8.21,0,14.86-4.76,14.86-10.62,0-9.33-5.82-18.16-15.89-24.08a53,53,0,0,0-20.43-6.49l-10.64-39.48-5.18-87.64c20.36-21.44,33-45.53,24.55-90.85-3.95-21,10.63-30.63,13.35-32.24,2.45-.85,4.91-1.79,7.36-2.53a41,41,0,0,0,11.33-5.28c2.22-1.51,10.13-7.23,16.79-19.8C399.52,114.6,400.61,111.56,399.69,108.48Z" transform="translate(-96.37 0)"/></svg>