<?xml version="1.0" encoding="utf-8"?>
<!-- Generator: Adobe Illustrator 24.1.1, SVG Export Plug-In . SVG Version: 6.00 Build 0)  -->
<svg version="1.1" id="Capa_1" xmlns="http://www.w3.org/2000/svg" xmlns:xlink="http://www.w3.org/1999/xlink" x="0px" y="0px"
	 viewBox="0 0 496.4 496.4" style="enable-background:new 0 0 496.4 496.4;" xml:space="preserve">
<style type="text/css">
	.st0{fill:#FFFFFF;}
</style>
<path class="st0" d="M399.7,108.5c-1-3.1-3.3-5.5-6.2-6.3c-10.1-2.9-18.6-10.2-23.2-20.1c-0.8-1.7-1.6-3.3-2.6-4.9
	c-4-6.7-10-11.7-17.1-14.4c-6.5-2.5-11.1-6.3-15.3-10C334.8,44,333,19.4,326,2.6c-0.5-1.3-1.7-2.3-3.1-2.6c-1.4-0.3-2.8,0.1-3.9,1.1
	c-6.8,6.7-19.8,22.1-25.8,46.6c-26.7,12.2-34.7,38.2-34.7,56.2c0,5.6,1.2,10.9,2.8,16c-13.3,6.2-26.1,19.5-38.1,40.7l-61.7,74.2l0,0
	c-23.4,21.4-39,59.6-39,103.4c0,9.1,0.8,17.5,2.1,25.3c-0.3,0.4-0.7,0.6-0.9,1c-20.1,33.3-17.9,29.6-22.6,39.8
	c-9.4,25.2-4.2,52,10.6,67.3c20.2,20.9,41.8,25,49.6,24.6c16,0.3,13,0.3,98.1-28.4c5.6-1.9,8.9-7.9,7.2-13.7
	c-1.6-6-7.9-9.5-13.8-7.8c-85.8,24-83.3,24.7-97.3,21.1c-1.2-0.4-45.6-20.4-15.8-64.1c14.3,21.2,36.2,31.9,61.1,32.8v0.3h90.3
	c7.1,0,12.9-4.8,12.9-10.6c0-9.3-5.1-18.2-13.8-24.1c-4.1-2.8-8.8-4.7-13.7-5.8c6.4-11.1,10.8-24.6,12.6-40.5l24.6,76.7
	c0.9,2.6,3.3,4.3,6.1,4.3h42.1c8.2,0,14.9-4.8,14.9-10.6c0-9.3-5.8-18.2-15.9-24.1c-5.9-3.5-13-5.6-20.4-6.5l-10.6-39.5l-5.2-87.6
	c20.4-21.4,33-45.5,24.5-90.8c-3.9-21,10.6-30.6,13.3-32.2c2.5-0.8,4.9-1.8,7.4-2.5c3.8-1.2,7.7-2.8,11.3-5.3
	c2.2-1.5,10.1-7.2,16.8-19.8C399.5,114.6,400.6,111.6,399.7,108.5z"/>
</svg>
