<svg xmlns="http://www.w3.org/2000/svg" viewBox="0 0 135.93 166.92"><defs><style>.cls-1{fill:#fff;}</style></defs><g id="레이어_2" data-name="레이어 2"><path class="cls-1" d="M113.53,88.67c-.19-21.12,17.25-31.26,18-31.74-9.79-14.35-25.08-16.35-30.49-16.58C88,39,75.65,48,69.08,48S52.3,40.56,41.53,40.78C27.33,41,14.29,49,7,61.68c-14.72,25.55-3.78,63.4,10.59,84.11,7,10.14,15.35,21.53,26.32,21.12,10.59-.41,14.59-6.83,27.37-6.83s16.37,6.83,27.56,6.66c11.37-.24,18.59-10.38,25.53-20.52a93,93,0,0,0,11.57-23.76C135.68,122.38,113.74,114,113.53,88.67Z"/><path class="cls-1" d="M92.5,26.64c5.84-7,9.77-16.86,8.69-26.64C92.8.32,82.62,5.61,76.62,12.63c-5.42,6.28-10.16,16.29-8.87,25.85C77.09,39.19,86.68,33.71,92.5,26.64Z"/></g></svg>