<?xml version="1.0" encoding="utf-8"?>
<!-- Generator: Adobe Illustrator 24.1.1, SVG Export Plug-In . SVG Version: 6.00 Build 0)  -->
<svg version="1.1" id="레이어_1" xmlns="http://www.w3.org/2000/svg" xmlns:xlink="http://www.w3.org/1999/xlink" x="0px"
	 y="0px" viewBox="0 0 384 384" style="enable-background:new 0 0 384 384;" xml:space="preserve">
<style type="text/css">
	.st0{fill:#999999;}
</style>
<path class="st0" d="M368,204.2H16c-8.8,0-16-5.6-16-12.5s7.2-12.5,16-12.5h352c8.8,0,16,5.6,16,12.5S376.8,204.2,368,204.2z"/>
<path class="st0" d="M368,81.5H16C7.2,81.5,0,75.9,0,69s7.2-12.5,16-12.5h352c8.8,0,16,5.6,16,12.5S376.8,81.5,368,81.5z"/>
<path class="st0" d="M368,326.8H16c-8.8,0-16-5.6-16-12.5s7.2-12.5,16-12.5h352c8.8,0,16,5.6,16,12.5S376.8,326.8,368,326.8z"/>
</svg>
