<?xml version="1.0" encoding="utf-8"?>
<!-- Generator: Adobe Illustrator 24.1.1, SVG Export Plug-In . SVG Version: 6.00 Build 0)  -->
<svg version="1.1" id="레이어_1" xmlns="http://www.w3.org/2000/svg" xmlns:xlink="http://www.w3.org/1999/xlink" x="0px"
	 y="0px" viewBox="0 0 24 24" style="enable-background:new 0 0 24 24;" xml:space="preserve">
<style type="text/css">
	.st0{fill:#A8ABB4;}
</style>
<path class="st0" d="M0,12c0,6.6,5.4,12,12,12C5.4,24,0,18.6,0,12z"/>
<path class="st0" d="M24,12c0-6.6-5.4-12-12-12C18.6,0,24,5.4,24,12z"/>
<path class="st0" d="M12,24c6.6,0,12-5.4,12-12C24,18.6,18.6,24,12,24z"/>
<path class="st0" d="M12,0C5.4,0,0,5.4,0,12C0,5.4,5.4,0,12,0z"/>
<path class="st0" d="M18.5,18.6c-3.8-0.9-4.1-1.5-4.4-2.1c-0.3-0.6-0.2-1.2,0.2-2c1.7-3.3,2.1-6,1-7.8C14.7,5.6,13.5,5,12,5
	c-1.5,0-2.7,0.6-3.4,1.8c-1.1,1.8-0.7,4.5,1,7.8c0.4,0.7,0.5,1.4,0.2,2c-0.3,0.6-0.6,1.2-4.4,2.1c-0.9,0.2-1.3,0.4-1.6,0.8
	c2,2.2,4.9,3.6,8.1,3.6s6.1-1.4,8.1-3.6C19.8,19,19.4,18.8,18.5,18.6z"/>
<path class="st0" d="M24,12c0-6.6-5.4-12-12-12S0,5.4,0,12s5.4,12,12,12S24,18.6,24,12z M3.2,18.6C1.8,16.8,1,14.5,1,12
	C1,5.9,5.9,1,12,1s11,4.9,11,11c0,2.5-0.8,4.8-2.2,6.6c-0.4-0.5-1-0.8-2-1c-2-0.5-3.4-0.8-3.7-1.5c-0.1-0.3-0.1-0.6,0.2-1.1
	c1.9-3.6,2.3-6.7,1-8.8C15.4,4.8,13.8,4,12,4c-1.9,0-3.4,0.8-4.3,2.3c-1.3,2.1-0.9,5.2,1,8.7c0.2,0.5,0.3,0.8,0.2,1.1
	c-0.3,0.7-1.7,1-3.7,1.5C4.3,17.8,3.6,18.2,3.2,18.6z M12,23c-3.2,0-6.1-1.4-8.1-3.6c0.3-0.4,0.8-0.7,1.6-0.8
	c3.8-0.9,4.1-1.5,4.4-2.1c0.3-0.6,0.2-1.2-0.2-2c-1.7-3.2-2.1-6-1-7.8C9.3,5.6,10.5,5,12,5c1.5,0,2.7,0.6,3.4,1.7
	c1.1,1.8,0.7,4.5-1,7.8c-0.4,0.7-0.5,1.4-0.2,2c0.3,0.6,0.5,1.2,4.4,2.1c0.9,0.2,1.3,0.4,1.6,0.8C18.1,21.6,15.2,23,12,23z"/>
<image style="overflow:visible;" width="1920" height="848" xlink:href="3EB7BDBE.jpg"  transform="matrix(1 0 0 1 92.0727 -664.8727)">
</image>
</svg>
